<svg xmlns="http://www.w3.org/2000/svg" version="1.1" xmlns:xlink="http://www.w3.org/1999/xlink" xmlns:svgjs="http://svgjs.dev/svgjs" width="100%" height="100%" viewBox="0 0 1000 600"><rect width="1000" height="600" x="0" y="0" fill="#ec4d37"/><g><circle r="166.66666666666666" cx="322.57148234049475" cy="344.79368266468737" fill="#1d1b1b" transform="matrix(0.8017715183456782,0,0,0.8017715183456782,0,23.5542722368165)"/><path d="M217.39691681264125 412.3823748388886L217.39691681264125 412.3823748388886L218.62736325012725 400.02068039716903L219.8578096876132 400.02068039716903Q227.8986340814169 407.0027485540662 237.99974088217382 410.9230081339633Q248.10084768293078 414.84326771386054 257.9730342162485 414.84326771386054L257.9730342162485 414.84326771386054Q271.99440059690255 414.84326771386054 280.63614069273433 407.1172086877858Q289.306495821996 399.3911496617111 289.306495821996 386.3999244845337L289.306495821996 386.3999244845337Q289.306495821996 379.1889360601972 286.1016120778464 373.00808883933746Q282.89672833369696 366.82724161847773 275.59989480907075 360.4460891636086Q268.27444625101475 354.0649367087394 255.51214134127653 346.6536430503937L255.51214134127653 346.6536430503937Q246.64148097800555 341.50293703301054 238.60065658420186 335.83716041388914Q230.5884472238281 330.1713837947676 225.43774120644494 322.6456300027023Q220.2870351890618 315.1198762106369 220.2870351890618 304.6181589418612L220.2870351890618 304.6181589418612Q220.2870351890618 288.9657356557025 231.61858842730473 279.37969945668385Q242.95014166554765 269.79366325766523 261.492683328127 269.79366325766523L261.492683328127 269.79366325766523Q269.73381295594004 269.79366325766523 279.20538902123906 271.5391802968895Q288.67696508653796 273.3133123695437 293.82767110392115 275.97451047852496L293.82767110392115 275.97451047852496L292.7975299004445 287.5063689507773L291.5670834629585 287.5063689507773Q279.806304723267 274.744064041039 261.492683328127 274.744064041039L261.492683328127 274.744064041039Q248.30115291694014 274.744064041039 240.26032852313645 281.43998186363706Q232.21950412933276 288.13589968623523 232.21950412933276 299.46745292447815L232.21950412933276 299.46745292447815Q232.21950412933276 307.9088877863005 236.65483431096825 314.00388990687054Q241.09016449260372 320.07027699401067 248.10084768293078 324.90621764366483Q255.08291583982793 329.742158293319 263.1237402336317 334.29194860867415L263.1237402336317 334.29194860867415Q272.3950110649213 339.64295986006664 281.15121129447266 345.62350184691707Q289.90741152402404 351.6040438337675 295.57318814314544 359.93101856187025Q301.23896476226696 368.2866083234029 301.23896476226696 380.8486079991318L301.23896476226696 380.8486079991318Q301.23896476226696 392.380466471384 295.88795351087435 401.1366667009354Q290.536942259482 409.8928669304868 280.75060082645393 414.84326771386054Q270.964259393426 419.7936684972343 257.9730342162485 419.7936684972343L257.9730342162485 419.7936684972343Q249.73190458843544 419.7936684972343 238.60065658420186 417.7333860902811Q227.4980236133982 415.6731036833278 217.39691681264125 412.3823748388886ZM375.2088261785748 416.90355012081386L341.84369719930396 416.90355012081386L341.84369719930396 272.6837816340858L370.4587306292103 272.6837816340858Q392.72122663767743 272.6837816340858 405.082921079397 281.95505246537545Q417.4446155211166 291.2263232966651 417.4446155211166 307.7085825522912L417.4446155211166 307.7085825522912Q417.4446155211166 319.86997176000136 410.2336270967802 328.4258667555433Q403.0226386724438 336.9531467176555 390.0314134952663 340.04357032808537L390.0314134952663 340.04357032808537L390.0314134952663 341.30263179900123Q407.77273422180826 343.56321943996386 417.7593808888455 353.5498661070011Q427.74602755588285 363.53651277403844 427.74602755588285 378.7883255921786L427.74602755588285 378.7883255921786Q427.74602755588285 396.70133651929996 413.953581442668 406.8024433200569Q400.13252029602324 416.90355012081386 375.2088261785748 416.90355012081386L375.2088261785748 416.90355012081386ZM370.68765089664964 277.63418241745956L370.68765089664964 277.63418241745956L355.83644854652823 277.63418241745956L355.83644854652823 339.44265462605733L370.4587306292103 339.44265462605733Q403.0226386724438 339.44265462605733 403.0226386724438 308.53841852175844L403.0226386724438 308.53841852175844Q403.0226386724438 277.63418241745956 370.68765089664964 277.63418241745956ZM375.2088261785748 344.3930554094311L375.2088261785748 344.3930554094311L355.83644854652823 344.3930554094311L355.83644854652823 411.95314933744L375.2088261785748 411.95314933744Q412.92344023919134 411.95314933744 412.92344023919134 378.15879485672065L412.92344023919134 378.15879485672065Q412.92344023919134 344.3930554094311 375.2088261785748 344.3930554094311Z " fill="#ec4d37" transform="matrix(0.8017715183456782,0,0,0.8017715183456782,0,23.5542722368165)"/><path d="M572.5714697301215 412.3823748388886L572.5714697301215 412.3823748388886L573.8019161676076 400.02068039716903L575.0323626050936 400.02068039716903Q583.0731869988972 407.0027485540662 593.1742937996542 410.9230081339633Q603.2754006004111 414.84326771386054 613.1475871337287 414.84326771386054L613.1475871337287 414.84326771386054Q627.1689535143829 414.84326771386054 635.8106936102146 407.1172086877858Q644.4810487394763 399.3911496617111 644.4810487394763 386.3999244845337L644.4810487394763 386.3999244845337Q644.4810487394763 379.1889360601972 641.2761649953268 373.00808883933746Q638.0712812511773 366.82724161847773 630.7744477265511 360.4460891636086Q623.4489991684951 354.0649367087394 610.6866942587568 346.6536430503937L610.6866942587568 346.6536430503937Q601.8160338954859 341.50293703301054 593.7752095016822 335.83716041388914Q585.7630001413085 330.1713837947676 580.6122941239253 322.6456300027023Q575.4615881065421 315.1198762106369 575.4615881065421 304.6181589418612L575.4615881065421 304.6181589418612Q575.4615881065421 288.9657356557025 586.7931413447851 279.37969945668385Q598.1246945830279 269.79366325766523 616.6672362456073 269.79366325766523L616.6672362456073 269.79366325766523Q624.9083658734204 269.79366325766523 634.3799419387193 271.5391802968895Q643.8515180040183 273.3133123695437 649.0022240214015 275.97451047852496L649.0022240214015 275.97451047852496L647.9720828179248 287.5063689507773L646.7416363804389 287.5063689507773Q634.9808576407473 274.744064041039 616.6672362456073 274.744064041039L616.6672362456073 274.744064041039Q603.4757058344204 274.744064041039 595.4348814406168 281.43998186363706Q587.3940570468131 288.13589968623523 587.3940570468131 299.46745292447815L587.3940570468131 299.46745292447815Q587.3940570468131 307.9088877863005 591.8293872284486 314.00388990687054Q596.264717410084 320.07027699401067 603.2754006004111 324.90621764366483Q610.2574687573083 329.742158293319 618.2982931511119 334.29194860867415L618.2982931511119 334.29194860867415Q627.5695639824016 339.64295986006664 636.325764211953 345.62350184691707Q645.0819644415043 351.6040438337675 650.7477410606258 359.93101856187025Q656.4135176797472 368.2866083234029 656.4135176797472 380.8486079991318L656.4135176797472 380.8486079991318Q656.4135176797472 392.380466471384 651.0625064283547 401.1366667009354Q645.7114951769622 409.8928669304868 635.9251537439343 414.84326771386054Q626.1388123109062 419.7936684972343 613.1475871337287 419.7936684972343L613.1475871337287 419.7936684972343Q604.9064575059158 419.7936684972343 593.7752095016822 417.7333860902811Q582.6725765308785 415.6731036833278 572.5714697301215 412.3823748388886ZM711.0110014640086 416.90355012081386L697.0182501167843 416.90355012081386L697.0182501167843 272.6837816340858L722.7717802037 272.6837816340858Q747.6954743211485 272.6837816340858 761.4879204343633 283.2999590365811Q775.3089815810081 293.9161364390763 775.3089815810081 312.8592885696743L775.3089815810081 312.8592885696743Q775.3089815810081 331.8024407002723 761.4879204343633 342.4186181027676Q747.6954743211485 353.03479550526276 722.7717802037 353.03479550526276L722.7717802037 353.03479550526276L711.0110014640086 353.03479550526276L711.0110014640086 416.90355012081386ZM722.7717802037 277.63418241745956L722.7717802037 277.63418241745956L711.0110014640086 277.63418241745956L711.0110014640086 348.084394721889L722.7717802037 348.084394721889Q760.4577792308867 348.084394721889 760.4577792308867 312.8592885696743L760.4577792308867 312.8592885696743Q760.4577792308867 277.63418241745956 722.7717802037 277.63418241745956ZM804.1529352783538 344.7936658774498L804.1529352783538 344.7936658774498Q804.1529352783538 328.94093735728165 809.8187118974752 315.2343363443565Q815.4844885165966 301.52773533143136 825.6714404176433 291.3407834303847Q835.85839231869 281.12521649590815 849.564993331615 275.4594398767867Q863.2715943445402 269.79366325766523 879.1243228647083 269.79366325766523L879.1243228647083 269.79366325766523Q895.0056664183064 269.79366325766523 908.7122674312316 275.4594398767867Q922.3902534107268 281.12521649590815 932.6058203452034 291.3407834303847Q942.7927722462499 301.52773533143136 948.4585488653714 315.2343363443565Q954.1243254844929 328.94093735728165 954.1243254844929 344.7936658774498L954.1243254844929 344.7936658774498Q954.1243254844929 360.6463943976179 948.4585488653714 374.35299541054303Q942.7927722462499 388.0595964234682 932.6058203452034 398.24654832451483Q922.3902534107268 408.4621152589914 908.7122674312316 414.1278918781129Q895.0056664183064 419.7936684972343 879.1243228647083 419.7936684972343L879.1243228647083 419.7936684972343Q863.2715943445402 419.7936684972343 849.564993331615 414.1278918781129Q835.85839231869 408.4621152589914 825.6714404176433 398.24654832451483Q815.4844885165966 388.0595964234682 809.8187118974752 374.35299541054303Q804.1529352783538 360.6463943976179 804.1529352783538 344.7936658774498ZM819.8053585645125 344.7936658774498L819.8053585645125 344.7936658774498Q819.8053585645125 365.79710041500107 827.2166522228582 381.5639838348794Q834.627945881204 397.3308672547579 848.0197815264002 406.08706748430916Q861.4116171715963 414.84326771386054 879.1243228647083 414.84326771386054L879.1243228647083 414.84326771386054Q896.8656435912503 414.84326771386054 910.2574792364466 406.08706748430916Q923.6493148816427 397.3308672547579 931.0606085399885 381.4781387345897Q938.4719021983341 365.59679518099176 938.4719021983341 344.7936658774498L938.4719021983341 344.7936658774498Q938.4719021983341 323.9905365739079 931.0606085399885 308.2236531540294Q923.6493148816427 292.45676973415107 910.2574792364466 283.61472440431Q896.8656435912503 274.744064041039 879.1243228647083 274.744064041039L879.1243228647083 274.744064041039Q861.4116171715963 274.744064041039 848.1342416601198 283.5002642705904Q834.8282511152134 292.2564645001417 827.3311123565778 308.0233479200201Q819.8053585645125 323.79023133989847 819.8053585645125 344.7936658774498ZM1038.1952937015576 416.90355012081386L1024.1739273209037 416.90355012081386L1024.1739273209037 276.8043464479923Q1021.0835037104738 276.8043464479923 1011.4116224111655 278.0347928854783L1011.4116224111655 278.0347928854783L971.0358102415676 283.1854989028614L971.0358102415676 272.6837816340858L1091.3334107808937 272.6837816340858L1091.3334107808937 283.1854989028614L1050.957598611296 278.0347928854783Q1041.2857173119878 276.8043464479923 1038.1952937015576 276.8043464479923L1038.1952937015576 276.8043464479923L1038.1952937015576 416.90355012081386Z " fill="#1d1b1b" transform="matrix(0.8017715183456782,0,0,0.8017715183456782,0,23.5542722368165)"/></g></svg>